<?xml version="1.0" standalone="no"?>
<!DOCTYPE svg PUBLIC "-//W3C//DTD SVG 20010904//EN"
 "http://www.w3.org/TR/2001/REC-SVG-20010904/DTD/svg10.dtd">
<svg version="1.0" xmlns="http://www.w3.org/2000/svg"
 width="223.000000pt" height="223.000000pt" viewBox="0 0 223.000000 223.000000"
 preserveAspectRatio="xMidYMid meet">
<metadata>
Created by potrace 1.14, written by Peter Selinger 2001-2017
</metadata>
<g transform="translate(0.000000,223.000000) scale(0.100000,-0.100000)"
fill="#000000" stroke="none">
<path d="M1105 2148 c4 -13 9 -57 12 -98 7 -120 -33 -165 -158 -181 -90 -11
-128 -33 -157 -89 -38 -74 -14 -157 57 -199 l36 -21 -101 0 c-86 0 -107 -3
-145 -23 -131 -69 -128 -248 5 -308 l41 -19 -75 0 c-128 0 -197 -34 -244 -119
-31 -57 -34 -115 -10 -181 16 -45 16 -46 -11 -85 -22 -33 -26 -48 -22 -85 3
-35 245 -691 260 -706 6 -6 1076 -9 1082 -2 3 3 44 106 91 229 47 123 107 279
135 347 55 136 57 163 13 227 -22 33 -22 36 -8 72 11 25 15 58 12 100 -5 81
-41 136 -117 175 -45 24 -65 28 -135 28 l-81 0 33 17 c132 65 134 244 2 311
-38 19 -60 22 -154 22 l-111 0 35 19 c19 10 48 40 65 66 26 42 30 58 30 119 0
56 -6 83 -28 130 -38 82 -150 191 -247 239 -87 44 -116 48 -105 15z"/>
</g>
</svg>
